<!--?xml version="1.0" standalone="no"?-->

<svg version="1.0" xmlns="http://www.w3.org/2000/svg" width="300.000000pt" height="300.000000pt" viewBox="0 0 300.000000 300.000000" preserveAspectRatio="xMidYMid meet">
<g transform="translate(0.000000,300.000000) scale(0.100000,-0.100000)" fill="#080808" stroke="none">
<path d="M2096 2741 c-15 -10 -37 -32 -47 -47 -18 -28 -19 -65 -19 -984 l0
-955 25 -37 c32 -48 47 -50 268 -46 l179 3 29 33 29 32 0 969 c0 967 0 968
-21 995 -40 50 -64 56 -246 56 -148 0 -171 -2 -197 -19z" id="node1" class="node"></path>
<path d="M1308 2088 c-30 -8 -41 -18 -58 -52 -19 -41 -20 -58 -20 -643 0 -330
3 -613 6 -629 3 -16 16 -42 30 -59 l24 -30 210 0 210 0 24 30 c14 17 27 43 30
59 3 16 6 299 6 629 0 584 -1 602 -20 643 -18 36 -27 43 -65 53 -53 13 -326
13 -377 -1z" id="node2" class="node"></path>
<path d="M504 1426 c-64 -28 -64 -28 -64 -373 l0 -313 29 -32 29 -33 179 -3
c221 -4 236 -2 268 46 l25 37 0 293 c0 328 -3 347 -65 376 -44 21 -353 22
-401 2z" id="node3" class="node"></path>
<path d="M42 468 c-39 -32 -41 -35 -41 -91 -1 -42 3 -59 14 -63 8 -3 17 -13
20 -23 3 -9 18 -24 34 -34 27 -16 124 -17 1431 -17 1307 0 1404 1 1431 17 16
10 31 25 34 34 3 10 12 20 20 23 11 4 15 21 15 58 0 49 -3 56 -40 91 l-40 37
-1419 0 -1419 0 -40 -32z" id="node4" class="node"></path>
</g>
<g transform="translate(0.000000,300.000000) scale(0.100000,-0.100000)" fill="#9C9C9C" stroke="none">


</g>
</svg>